<?xml version="1.0" encoding="UTF-8" standalone="no"?>
<svg width="536.28125" height="536.28125" viewBox="0 0 536.28125 536.28125" fill="none"
    version="1.1" id="svg8" xmlns="http://www.w3.org/2000/svg">
    <path id="deez" style="fill:#000000;fill-opacity:1"
        d="M 121.38672,0 C 54.137903,0 0,54.139853 0,121.38867 v 167.73047 c 19.435874,-16.86351 41.119433,-30.96239 64.474609,-41.79102 l 42.453131,-19.68359 27.48633,101.08984 -29.35157,14.33594 c -22.590237,11.03362 -42.591291,26.97561 -58.462891,46.81836 -17.991107,22.49259 -29.808286,49.08537 -34.748047,77.21875 19.467755,40.93645 61.02875,69.17383 109.535158,69.17383 H 346.1836 c 2.65883,-11.14202 4.33141,-22.54931 4.70508,-34.125 0.67913,-21.05002 -2.54002,-41.90218 -9.36133,-61.55469 v -0.002 l -0.002,-0.002 c -4.2865,-12.35402 -5.17784,-23.81015 -2.25586,-36.41211 2.53472,-10.93192 11.91528,-24.2074 19.34571,-29.27148 13.64818,-9.30227 28.23853,-12.2562 43.56836,-8.82227 h 0.002 c 6.97264,1.56221 13.85838,4.80753 19.31445,9.24805 l 0.0215,0.0176 0.0215,0.0176 c 4.22263,3.44664 10.54606,11.47764 13.23828,18.11718 l 0.004,0.0117 0.004,0.01 c 14.30615,35.3368 21.18505,73.4693 19.9414,111.99414 -0.26794,8.30223 -1.01335,16.54262 -2.02344,24.73633 48.60455,-15.83252 83.57422,-61.32755 83.57422,-115.34961 V 121.38867 C 536.28125,54.139853 482.1414,0 414.89258,0 Z m 50.67774,116.05078 c 24.65602,-0.3403 59.80757,9.0863 110.93554,22.79687 l 17.6543,4.73242 c 81.75476,21.92394 122.63264,32.88783 130.84961,63.55274 8.21697,30.66491 -21.70315,60.59712 -81.54297,120.46094 l -12.92187,12.92578 c -59.87682,59.89982 -89.81528,89.85176 -120.49219,81.63476 -30.67591,-8.21597 -41.6367,-49.12095 -63.55664,-130.92968 l -4.73242,-17.66211 c -21.92094,-81.80876 -32.88277,-122.71403 -10.42383,-145.16797 8.42172,-8.42022 19.43684,-12.13957 34.23047,-12.34375 z" />
    <defs id="defs8" />
</svg>
